<svg xmlns="http://www.w3.org/2000/svg" viewBox="0 0 50 50" id="AiRobot">
  <path fill="#fbbc05" d="M25 38a.99979.99979 0 01-1-1V25a1 1 0 012 0V37A.99979.99979 0 0125 38zM8 38a.99979.99979 0 01-1-1V34a3.00328 3.00328 0 013-3h2a1.00094 1.00094 0 001-1V25a1 1 0 012 0v5a3.00328 3.00328 0 01-3 3H10a1.00094 1.00094 0 00-1 1v3A.99979.99979 0 018 38zM42 38a.99979.99979 0 01-1-1V34a1.00094 1.00094 0 00-1-1H38a3.00328 3.00328 0 01-3-3V25a1 1 0 012 0v5a1.00094 1.00094 0 001 1h2a3.00328 3.00328 0 013 3v3A.99979.99979 0 0142 38zM15 8a.99979.99979 0 01-1-1V3a1 1 0 012 0V7A.99979.99979 0 0115 8zM35 8a.99979.99979 0 01-1-1V3a1 1 0 012 0V7A.99979.99979 0 0135 8zM43 10H40a.99979.99979 0 00-1 1V21a.99979.99979 0 001 1h3a3.00328 3.00328 0 003-3V13A3.00328 3.00328 0 0043 10z" class="color4e8396 svgShape"></path>
  <path fill="#657da4" d="M43,10H40a.99979.99979,0,0,0-1,1v1a.99979.99979,0,0,1,1-1h3a3.00328,3.00328,0,0,1,3,3V13A3.00328,3.00328,0,0,0,43,10Z" class="color6593a4 svgShape"></path>
  <path fill="#34a853" d="M43,21H40a.99979.99979,0,0,1-1-1v1a.99979.99979,0,0,0,1,1h3a3.00328,3.00328,0,0,0,3-3V18A3.00328,3.00328,0,0,1,43,21Z" class="color437182 svgShape"></path>
  <rect width="2" height="1" x="40" y="10" fill="#6078a0" class="color608fa0 svgShape"></rect>
  <rect width="2" height="11" x="40" y="11" fill="#34a853" class="color437182 svgShape"></rect>
  <path fill="#fbbc05" d="M10,10H7a3.00328,3.00328,0,0,0-3,3v6a3.00328,3.00328,0,0,0,3,3h3a.99979.99979,0,0,0,1-1V11A.99979.99979,0,0,0,10,10Z" class="color4e8396 svgShape"></path>
  <path fill="#657da4" d="M7,10h3a.99979.99979,0,0,1,1,1v1a.99979.99979,0,0,0-1-1H7a3.00328,3.00328,0,0,0-3,3V13A3.00328,3.00328,0,0,1,7,10Z" class="color6593a4 svgShape"></path>
  <path fill="#34a853" d="M7,21h3a.99979.99979,0,0,0,1-1v1a.99979.99979,0,0,1-1,1H7a3.00328,3.00328,0,0,1-3-3V18A3.00328,3.00328,0,0,0,7,21Z" class="color437182 svgShape"></path>
  <rect width="2" height="1" x="8" y="10" fill="#6078a0" transform="rotate(180 9 10.5)" class="color608fa0 svgShape"></rect>
  <rect width="2" height="11" x="8" y="11" fill="#34a853" class="color437182 svgShape"></rect>
  <rect width="32" height="20" x="9" y="6" fill="#698dc9" rx="3" class="color69b0c9 svgShape"></rect>
  <path fill="#8aa6d5" d="M38,6H12A3.00328,3.00328,0,0,0,9,9v2a3.00328,3.00328,0,0,1,3-3H38a3.00328,3.00328,0,0,1,3,3V9A3.00328,3.00328,0,0,0,38,6Z" class="color8ac1d5 svgShape"></path>
  <path fill="#4285f4" d="M38,24H12a3.00328,3.00328,0,0,1-3-3v2a3.00328,3.00328,0,0,0,3,3H38a3.00328,3.00328,0,0,0,3-3V21A3.00328,3.00328,0,0,1,38,24Z" class="color53a1bd svgShape"></path>
  <path fill="#e8eef7" d="M32,11a5.00831,5.00831,0,0,0-4.8989,4H22.8989a5,5,0,1,0,0,2h4.2022A5,5,0,1,0,32,11Z" class="colore8ebf7 svgShape"></path>
  <path fill="#d8e3f5" d="M32,20a5.00831,5.00831,0,0,1-4.8989-4H22.8989a4.98519,4.98519,0,0,1-9.8484-.5A4.88433,4.88433,0,0,0,13,16a5,5,0,0,0,9.8989,1h4.2022A5,5,0,0,0,37,16a4.88433,4.88433,0,0,0-.0505-.5A4.98963,4.98963,0,0,1,32,20Z" class="colord8ddf5 svgShape"></path>
  <circle cx="32" cy="16" r="2" fill="#2b4c34" class="color2b3a4c svgShape"></circle>
  <circle cx="18" cy="16" r="2" fill="#2b4c34" class="color2b3a4c svgShape"></circle>
  <rect width="12" height="12" x="19" y="36" fill="#f2746a" rx="3" class="colorf2876a svgShape"></rect>
  <rect width="12" height="12" x="36" y="36" fill="#f2746a" rx="3" class="colorf2876a svgShape"></rect>
  <path fill="#ea4335" d="M45,46H39a3.00328,3.00328,0,0,1-3-3v2a3.00328,3.00328,0,0,0,3,3h6a3.00328,3.00328,0,0,0,3-3V43A3.00328,3.00328,0,0,1,45,46Z" class="colore87a5d svgShape"></path>
  <path fill="#f59189" d="M39,38h6a3.00328,3.00328,0,0,1,3,3V39a3.00328,3.00328,0,0,0-3-3H39a3.00328,3.00328,0,0,0-3,3v2A3.00328,3.00328,0,0,1,39,38Z" class="colorf5a089 svgShape"></path>
  <path fill="#ea4335" d="M28,46H22a3.00328,3.00328,0,0,1-3-3v2a3.00328,3.00328,0,0,0,3,3h6a3.00328,3.00328,0,0,0,3-3V43A3.00328,3.00328,0,0,1,28,46Z" class="colore87a5d svgShape"></path>
  <path fill="#f59189" d="M22,38h6a3.00328,3.00328,0,0,1,3,3V39a3.00328,3.00328,0,0,0-3-3H22a3.00328,3.00328,0,0,0-3,3v2A3.00328,3.00328,0,0,1,22,38Z" class="colorf5a089 svgShape"></path>
  <rect width="12" height="12" x="2" y="36" fill="#f2746a" rx="3" class="colorf2876a svgShape"></rect>
  <path fill="#ea4335" d="M11,46H5a3.00328,3.00328,0,0,1-3-3v2a3.00328,3.00328,0,0,0,3,3h6a3.00328,3.00328,0,0,0,3-3V43A3.00328,3.00328,0,0,1,11,46Z" class="colore87a5d svgShape"></path>
  <path fill="#f59189" d="M5,38h6a3.00328,3.00328,0,0,1,3,3V39a3.00328,3.00328,0,0,0-3-3H5a3.00328,3.00328,0,0,0-3,3v2A3.00328,3.00328,0,0,1,5,38Z" class="colorf5a089 svgShape"></path>
</svg>
