<svg id="SvgjsSvg1018" width="288" height="288" xmlns="http://www.w3.org/2000/svg" version="1.1" xmlns:xlink="http://www.w3.org/1999/xlink" xmlns:svgjs="http://svgjs.com/svgjs"><defs id="SvgjsDefs1019"></defs><g id="SvgjsG1020"><svg xmlns="http://www.w3.org/2000/svg" xmlns:svgjs="http://svgjs.com/svgjs" xmlns:xlink="http://www.w3.org/1999/xlink" viewBox="0 0 288 288" width="288" height="288"><svg xmlns="http://www.w3.org/2000/svg" viewBox="0 0 24 24" width="288" height="288"><defs><linearGradient id="a" x1="3.549" x2="20.451" y1="12" y2="12" gradientUnits="userSpaceOnUse"><stop offset="0" stop-color="#ea4335" class="svgShape stopColor16b0e2-3"></stop><stop offset="1" stop-color="#4285f4" class="svgShape stopColor6e5af0-4"></stop></linearGradient><linearGradient id="b" x1="8.295" x2="15.705" y1="11.387" y2="11.387" xlink:href="#a"></linearGradient></defs><path fill="url(#a)" d="M13.036,2.11l5.5,2.063a3.179,3.179,0,0,1,1.914,2.762v8.1A3.335,3.335,0,0,1,19.267,17.4l-5.5,4.11a3.136,3.136,0,0,1-3.532,0l-5.5-4.11a3.335,3.335,0,0,1-1.184-2.363v-8.1A3.179,3.179,0,0,1,5.463,4.173l5.5-2.063A3.424,3.424,0,0,1,13.036,2.11Z" opacity=".4" class="svgShape colorgradient-6 selectable"></path><path fill="url(#b)" d="M10.657,14.285a.744.744,0,0,1-.53-.22L8.515,12.454a.75.75,0,0,1,1.061-1.061l1.081,1.081,3.767-3.766a.75.75,0,1,1,1.061,1.06l-4.3,4.3A.744.744,0,0,1,10.657,14.285Z" class="svgShape colorgradient-7 selectable"></path></svg></svg></g></svg>