<?xml version="1.0" encoding="utf-8" ?><!-- created by svgstack.com | Attribution is required. --><svg xmlns="http://www.w3.org/2000/svg" xmlns:xlink="http://www.w3.org/1999/xlink" width="1024" height="1024"><path fill="#F9A932" transform="scale(2 2)" d="M341.773 161.378C371.41 162.625 367.481 209.501 339.83 207.68L338.003 207.559C343.055 192.505 341.02 184.956 341.773 170.27C342.399 167.613 341.893 164.11 341.773 161.378Z"/><path fill="#F9A932" transform="scale(2 2)" d="M169.989 152.12C170.261 157.275 170.194 162.674 170.077 167.841L170.27 167.952C170.851 184.166 170.673 190.905 174.552 207.559C141.635 207.581 141.915 164.02 169.989 161.378C169.766 158.286 169.835 155.212 169.989 152.12Z"/><path fill="#CC4A31" transform="scale(2 2)" d="M169.989 152.12L169.97 132.191C169.965 127.541 169.788 122.884 170.281 118.253C172.912 93.5234 191.361 67.5485 217.483 64.6546C222.812 64.0642 228.263 64.2913 233.619 64.2932L255.536 64.3218C300.192 64.6535 336.525 97.1038 341.436 141.909C342.136 148.301 341.785 154.951 341.773 161.378C341.893 164.11 342.399 167.613 341.773 170.27C330.949 141.618 329.509 147.004 306.018 150.685C273.632 155.759 240.774 145.487 214.694 126.367C208.717 133.418 201.808 138.877 193.103 142.19C177.11 148.276 175.79 149.646 170.27 167.952L170.077 167.841C170.194 162.674 170.261 157.275 169.989 152.12Z"/><path fill="#F8C395" transform="scale(2 2)" d="M170.27 167.952C175.79 149.646 177.11 148.276 193.103 142.19C201.808 138.877 208.717 133.418 214.694 126.367C240.774 145.487 273.632 155.759 306.018 150.685C329.509 147.004 330.949 141.618 341.773 170.27C341.02 184.956 343.055 192.505 338.003 207.559C333.107 225.069 320.341 240.262 306.267 251.301C303.531 253.448 296.632 257.062 294.95 258.797L294.95 273.312C292.335 273.173 281.286 277.223 278.064 278.187C259.971 283.602 241.82 281.994 224.125 275.967C221.306 275.007 218.843 273.236 216.005 272.323C216.094 273.928 216.248 275.531 216.005 277.128C215.875 271.027 215.99 264.901 216.005 258.797C198.436 247.575 183.638 233.569 176.699 213.52C176.005 211.515 175.636 209.412 174.552 207.559C170.673 190.905 170.851 184.166 170.27 167.952Z"/><path fill="#EF803E" transform="scale(2 2)" d="M216.005 258.797C241.186 267.189 259.132 273.42 286.412 262.455C289.077 261.383 292.081 259.007 294.95 258.797L294.95 273.312C292.335 273.173 281.286 277.223 278.064 278.187C259.971 283.602 241.82 281.994 224.125 275.967C221.306 275.007 218.843 273.236 216.005 272.323L216.005 258.797Z"/><path fill="#0CA0D6" transform="scale(2 2)" d="M216.005 272.323C218.843 273.236 221.306 275.007 224.125 275.967C241.82 281.994 259.971 283.602 278.064 278.187C281.286 277.223 292.335 273.173 294.95 273.312C294.965 276.311 294.98 279.308 294.95 282.307C308.408 281.154 317.872 286.841 329.772 289.086C372.574 302.967 408.108 342.802 411.652 388.454C412.237 395.995 411.946 403.693 411.946 411.258L411.939 444.112L169.989 444.112C165.704 443.967 161.366 444.11 157.075 444.112L100.277 444.112L100.269 412.181C100.268 401.098 100.068 390.035 101.996 379.064C109.729 335.048 139.729 306.741 179.175 290.539C182.137 289.998 185.525 288.195 188.515 287.292C196.76 284.801 207.418 282.462 216.005 282.307C215.873 280.602 215.982 278.84 216.005 277.128C216.248 275.531 216.094 273.928 216.005 272.323Z"/><path fill="#007FD0" transform="scale(2 2)" d="M157.075 444.112L157.081 410.359C157.086 406.852 156.659 399.316 157.178 396.167C158.422 388.628 169.013 388.313 169.994 396.161C170.572 400.776 169.997 405.983 169.991 410.666L169.989 444.112C165.704 443.967 161.366 444.11 157.075 444.112Z"/><path fill="#007FD0" transform="scale(2 2)" d="M347.726 390.03C357.704 390.053 355.023 403.77 355.02 410.05L355.002 444.112C352.945 444.005 350.933 444.023 348.875 444.112C346.375 443.995 343.931 444.013 341.434 444.112L341.433 412.188C341.427 404.383 338.437 392.214 347.726 390.03Z"/><path fill="#C7ECF0" transform="scale(2 2)" d="M216.005 272.323C218.843 273.236 221.306 275.007 224.125 275.967C241.82 281.994 259.971 283.602 278.064 278.187C281.286 277.223 292.335 273.173 294.95 273.312C294.965 276.311 294.98 279.308 294.95 282.307C308.408 281.154 317.872 286.841 329.772 289.086C322.131 303.549 310.714 316.438 299.372 328.091C289.064 338.681 288.204 338.643 275.949 329.522L263.603 320.306C261.132 318.441 258.691 316.4 255.969 314.909C249.135 319.364 242.628 324.626 236.076 329.501C220.186 341.327 219.841 336.32 207.836 322.616L185.051 297.25C183.07 295.084 180.745 293.037 179.175 290.539C182.137 289.998 185.525 288.195 188.515 287.292C196.76 284.801 207.418 282.462 216.005 282.307C215.873 280.602 215.982 278.84 216.005 277.128C216.248 275.531 216.094 273.928 216.005 272.323Z"/><path fill="#F9A932" transform="scale(2 2)" d="M216.005 272.323C218.843 273.236 221.306 275.007 224.125 275.967C241.82 281.994 259.971 283.602 278.064 278.187C281.286 277.223 292.335 273.173 294.95 273.312C294.965 276.311 294.98 279.308 294.95 282.307C290.522 298.624 258.667 305.768 243.381 301.484C234.362 298.957 220.183 291.059 216.005 282.307C215.873 280.602 215.982 278.84 216.005 277.128C216.248 275.531 216.094 273.928 216.005 272.323Z"/></svg> 