<svg width="128" height="128" viewBox="0 0 128 128" fill="none" xmlns="http://www.w3.org/2000/svg">
  <g stroke="#F97316" stroke-width="8" stroke-linecap="round" stroke-linejoin="round" opacity="0.95">
    <path d="M20 40L30 92"/>
    <path d="M20 40L64 64"/>
    <path d="M30 92L64 18"/>
    <path d="M30 92L64 64"/>
    <path d="M64 18L98 92"/>
    <path d="M98 92L108 40"/>
    <path d="M64 64L108 40"/>
    <path d="M64 64C50 56 41 56 30 92"/>
    <path d="M64 64C78 56 87 56 98 92"/>
  </g>
  <g fill="#FFFFFF" stroke="#EA580C" stroke-width="2">
    <circle cx="20" cy="40" r="9"/>
    <circle cx="30" cy="92" r="9"/>
    <circle cx="64" cy="18" r="9"/>
    <circle cx="64" cy="64" r="9"/>
    <circle cx="98" cy="92" r="9"/>
    <circle cx="108" cy="40" r="9"/>
  </g>
</svg>